<svg xmlns="http://www.w3.org/2000/svg" viewBox="0 0 24 24" fill="none" stroke="#d97706" stroke-width="2" stroke-linecap="round" stroke-linejoin="round">
  <!-- Building -->
  <rect x="4" y="2" width="16" height="20" rx="1" />
  <!-- Windows - Row 1 -->
  <rect x="6.5" y="4.5" width="2" height="2" rx="0.5" />
  <rect x="9.5" y="4.5" width="2" height="2" rx="0.5" />
  <rect x="12.5" y="4.5" width="2" height="2" rx="0.5" />
  <rect x="15.5" y="4.5" width="2" height="2" rx="0.5" />
  <!-- Windows - Row 2 -->
  <rect x="6.5" y="8" width="2" height="2" rx="0.5" />
  <rect x="9.5" y="8" width="2" height="2" rx="0.5" />
  <rect x="12.5" y="8" width="2" height="2" rx="0.5" />
  <rect x="15.5" y="8" width="2" height="2" rx="0.5" />
  <!-- Windows - Row 3 -->
  <rect x="6.5" y="11.5" width="2" height="2" rx="0.5" />
  <rect x="9.5" y="11.5" width="2" height="2" rx="0.5" />
  <rect x="12.5" y="11.5" width="2" height="2" rx="0.5" />
  <rect x="15.5" y="11.5" width="2" height="2" rx="0.5" />
  <!-- Windows - Row 4 -->
  <rect x="6.5" y="15" width="2" height="2" rx="0.5" />
  <rect x="9.5" y="15" width="2" height="2" rx="0.5" />
  <rect x="12.5" y="15" width="2" height="2" rx="0.5" />
  <rect x="15.5" y="15" width="2" height="2" rx="0.5" />
  <!-- Door -->
  <rect x="9" y="18" width="6" height="4" rx="0.5" />
  <!-- Antenna -->
  <line x1="12" y1="2" x2="12" y2="0.5" />
  <circle cx="12" cy="0.5" r="0.5" />
</svg>